<svg width="212" height="43" viewBox="0 0 212 43" fill="none" xmlns="http://www.w3.org/2000/svg">
<path d="M45.6578 0.333332L43.3822 13.1333H4.27111L4.76889 10.2889C5.24296 7.53926 6.61778 5.19259 8.89333 3.24889C11.2163 1.30518 13.7526 0.333332 16.5022 0.333332H45.6578ZM40.3956 30.2L38.12 43H8.96444C6.54667 43 4.55556 42.2178 2.99111 40.6533C1.42667 39.0889 0.644444 37.1452 0.644444 34.8222C0.644444 34.2059 0.691852 33.6133 0.786667 33.0444L3.63111 16.6889H16.4311L14.0844 30.2H40.3956ZM88.3453 0.333332L86.0697 13.1333H73.2697L75.5453 0.333332H88.3453ZM62.0342 0.333332L59.7586 13.1333H46.9586L49.2342 0.333332H62.0342ZM85.4297 16.6889L82.5853 33.0444C82.1112 35.7941 80.7127 38.1407 78.3897 40.0844C76.1142 42.0281 73.6016 43 70.8519 43H51.6519C49.2342 43 47.2431 42.2178 45.6786 40.6533C44.1142 39.0889 43.3319 37.1215 43.3319 34.7511C43.3319 34.1822 43.3794 33.6133 43.4742 33.0444L46.3186 16.6889H59.1186L56.7719 30.2H70.2831L72.6297 16.6889H85.4297ZM104.722 0.333332L102.446 13.1333H89.6461L91.9217 0.333332H104.722ZM122.215 30.2L119.939 43H84.3839L89.0061 16.6889H101.806L99.4594 30.2H122.215ZM143.847 0.333332L141.571 13.1333H128.771L131.047 0.333332H143.847ZM161.34 30.2L159.064 43H123.509L128.131 16.6889H140.931L138.584 30.2H161.34ZM211.061 0.333332L200.394 13.1333H174.509L168.394 0.333332H183.327L188.021 10.1467L196.127 0.333332H211.061ZM197.407 16.6889L192.074 23.0889L188.589 43H175.789L179.274 23.0889L176.216 16.6889H197.407Z" fill="black"/>
</svg>
