<svg width="136" height="47" viewBox="0 0 136 47" fill="none" xmlns="http://www.w3.org/2000/svg">
<g filter="url(#filter0_d_3_83)">
<rect x="11" y="11" width="114" height="25.28" rx="10.08" fill="white"/>
</g>
<path d="M56.26 18.6H59.8C60.688 18.6 61.476 18.776 62.164 19.128C62.852 19.48 63.384 19.976 63.76 20.616C64.144 21.248 64.336 21.976 64.336 22.8C64.336 23.624 64.144 24.356 63.76 24.996C63.384 25.628 62.852 26.12 62.164 26.472C61.476 26.824 60.688 27 59.8 27H56.26V18.6ZM59.728 25.956C60.408 25.956 61.004 25.824 61.516 25.56C62.036 25.296 62.436 24.928 62.716 24.456C62.996 23.976 63.136 23.424 63.136 22.8C63.136 22.176 62.996 21.628 62.716 21.156C62.436 20.676 62.036 20.304 61.516 20.04C61.004 19.776 60.408 19.644 59.728 19.644H57.46V25.956H59.728ZM71.8801 23.856C71.8801 23.944 71.8721 24.06 71.8561 24.204H66.6961C66.7681 24.764 67.0121 25.216 67.4281 25.56C67.8521 25.896 68.3761 26.064 69.0001 26.064C69.7601 26.064 70.3721 25.808 70.8361 25.296L71.4721 26.04C71.1841 26.376 70.8241 26.632 70.3921 26.808C69.9681 26.984 69.4921 27.072 68.9641 27.072C68.2921 27.072 67.6961 26.936 67.1761 26.664C66.6561 26.384 66.2521 25.996 65.9641 25.5C65.6841 25.004 65.5441 24.444 65.5441 23.82C65.5441 23.204 65.6801 22.648 65.9521 22.152C66.2321 21.656 66.6121 21.272 67.0921 21C67.5801 20.72 68.1281 20.58 68.7361 20.58C69.3441 20.58 69.8841 20.72 70.3561 21C70.8361 21.272 71.2081 21.656 71.4721 22.152C71.7441 22.648 71.8801 23.216 71.8801 23.856ZM68.7361 21.552C68.1841 21.552 67.7201 21.72 67.3441 22.056C66.9761 22.392 66.7601 22.832 66.6961 23.376H70.7761C70.7121 22.84 70.4921 22.404 70.1161 22.068C69.7481 21.724 69.2881 21.552 68.7361 21.552ZM73.6057 18.096H74.7577V27H73.6057V18.096ZM82.8313 23.856C82.8313 23.944 82.8233 24.06 82.8073 24.204H77.6473C77.7193 24.764 77.9633 25.216 78.3793 25.56C78.8033 25.896 79.3273 26.064 79.9513 26.064C80.7113 26.064 81.3233 25.808 81.7873 25.296L82.4233 26.04C82.1353 26.376 81.7753 26.632 81.3433 26.808C80.9193 26.984 80.4433 27.072 79.9153 27.072C79.2433 27.072 78.6473 26.936 78.1273 26.664C77.6073 26.384 77.2033 25.996 76.9153 25.5C76.6353 25.004 76.4953 24.444 76.4953 23.82C76.4953 23.204 76.6313 22.648 76.9033 22.152C77.1833 21.656 77.5633 21.272 78.0433 21C78.5313 20.72 79.0793 20.58 79.6873 20.58C80.2953 20.58 80.8353 20.72 81.3073 21C81.7873 21.272 82.1593 21.656 82.4233 22.152C82.6953 22.648 82.8313 23.216 82.8313 23.856ZM79.6873 21.552C79.1353 21.552 78.6713 21.72 78.2953 22.056C77.9273 22.392 77.7113 22.832 77.6473 23.376H81.7273C81.6633 22.84 81.4433 22.404 81.0673 22.068C80.6993 21.724 80.2393 21.552 79.6873 21.552ZM88.1329 26.628C87.9649 26.772 87.7569 26.884 87.5089 26.964C87.2609 27.036 87.0049 27.072 86.7409 27.072C86.1009 27.072 85.6049 26.9 85.2529 26.556C84.9009 26.212 84.7249 25.72 84.7249 25.08V21.588H83.6449V20.64H84.7249V19.248H85.8769V20.64H87.7009V21.588H85.8769V25.032C85.8769 25.376 85.9609 25.64 86.1289 25.824C86.3049 26.008 86.5529 26.1 86.8729 26.1C87.2249 26.1 87.5249 26 87.7729 25.8L88.1329 26.628ZM95.1888 23.856C95.1888 23.944 95.1808 24.06 95.1648 24.204H90.0048C90.0768 24.764 90.3208 25.216 90.7368 25.56C91.1608 25.896 91.6848 26.064 92.3088 26.064C93.0688 26.064 93.6808 25.808 94.1448 25.296L94.7808 26.04C94.4928 26.376 94.1328 26.632 93.7008 26.808C93.2768 26.984 92.8008 27.072 92.2728 27.072C91.6008 27.072 91.0048 26.936 90.4848 26.664C89.9648 26.384 89.5608 25.996 89.2728 25.5C88.9928 25.004 88.8528 24.444 88.8528 23.82C88.8528 23.204 88.9888 22.648 89.2608 22.152C89.5408 21.656 89.9208 21.272 90.4008 21C90.8888 20.72 91.4368 20.58 92.0448 20.58C92.6528 20.58 93.1928 20.72 93.6648 21C94.1448 21.272 94.5168 21.656 94.7808 22.152C95.0528 22.648 95.1888 23.216 95.1888 23.856ZM92.0448 21.552C91.4928 21.552 91.0288 21.72 90.6528 22.056C90.2848 22.392 90.0688 22.832 90.0048 23.376H94.0848C94.0208 22.84 93.8008 22.404 93.4248 22.068C93.0568 21.724 92.5968 21.552 92.0448 21.552Z" fill="black"/>
<path d="M26 19H27.3333H38" stroke="#52575C" stroke-linecap="round" stroke-linejoin="round"/>
<path d="M29.3333 19V17.6667C29.3333 17.313 29.4737 16.9739 29.7238 16.7239C29.9738 16.4738 30.313 16.3333 30.6666 16.3333H33.3333C33.6869 16.3333 34.026 16.4738 34.2761 16.7239C34.5261 16.9739 34.6666 17.313 34.6666 17.6667V19M36.6666 19V28.3333C36.6666 28.687 36.5261 29.0261 36.2761 29.2761C36.026 29.5262 35.6869 29.6667 35.3333 29.6667H28.6666C28.313 29.6667 27.9738 29.5262 27.7238 29.2761C27.4737 29.0261 27.3333 28.687 27.3333 28.3333V19H36.6666Z" stroke="#52575C" stroke-linecap="round" stroke-linejoin="round"/>
<defs>
<filter id="filter0_d_3_83" x="0.92" y="0.92" width="134.16" height="45.44" filterUnits="userSpaceOnUse" color-interpolation-filters="sRGB">
<feFlood flood-opacity="0" result="BackgroundImageFix"/>
<feColorMatrix in="SourceAlpha" type="matrix" values="0 0 0 0 0 0 0 0 0 0 0 0 0 0 0 0 0 0 127 0" result="hardAlpha"/>
<feOffset/>
<feGaussianBlur stdDeviation="5.04"/>
<feColorMatrix type="matrix" values="0 0 0 0 0.145098 0 0 0 0 0.156863 0 0 0 0 0.168627 0 0 0 0.12 0"/>
<feBlend mode="normal" in2="BackgroundImageFix" result="effect1_dropShadow_3_83"/>
<feBlend mode="normal" in="SourceGraphic" in2="effect1_dropShadow_3_83" result="shape"/>
</filter>
</defs>
</svg>
